<mxfile host="Electron" agent="Mozilla/5.0 (Windows NT 10.0; Win64; x64) AppleWebKit/537.36 (KHTML, like Gecko) draw.io/26.0.16 Chrome/132.0.6834.196 Electron/34.2.0 Safari/537.36" version="26.0.16">
  <diagram id="R2lEEEUBdFMjLlhIrx00" name="Page-1">
    <mxGraphModel dx="1434" dy="836" grid="1" gridSize="10" guides="1" tooltips="1" connect="1" arrows="1" fold="1" page="1" pageScale="1" pageWidth="850" pageHeight="1100" math="0" shadow="0" extFonts="Permanent Marker^https://fonts.googleapis.com/css?family=Permanent+Marker">
      <root>
        <mxCell id="0" />
        <mxCell id="1" parent="0" />
        <mxCell id="qJ_-mEPs5X0DL_JbNhQ2-5" value="DIM_CUSTOMER" style="shape=table;startSize=30;container=1;collapsible=0;childLayout=tableLayout;fixedRows=1;rowLines=0;fontStyle=0;strokeColor=default;fontSize=16;" parent="1" vertex="1">
          <mxGeometry x="130" y="780" width="400" height="240" as="geometry" />
        </mxCell>
        <mxCell id="qJ_-mEPs5X0DL_JbNhQ2-6" value="" style="shape=tableRow;horizontal=0;startSize=0;swimlaneHead=0;swimlaneBody=0;top=0;left=0;bottom=0;right=0;collapsible=0;dropTarget=0;fillColor=none;points=[[0,0.5],[1,0.5]];portConstraint=eastwest;strokeColor=inherit;fontSize=16;" parent="qJ_-mEPs5X0DL_JbNhQ2-5" vertex="1">
          <mxGeometry y="30" width="400" height="30" as="geometry" />
        </mxCell>
        <mxCell id="qJ_-mEPs5X0DL_JbNhQ2-7" value="PK" style="shape=partialRectangle;html=1;whiteSpace=wrap;connectable=0;fillColor=none;top=0;left=0;bottom=0;right=0;overflow=hidden;pointerEvents=1;strokeColor=inherit;fontSize=16;" parent="qJ_-mEPs5X0DL_JbNhQ2-6" vertex="1">
          <mxGeometry width="89" height="30" as="geometry">
            <mxRectangle width="89" height="30" as="alternateBounds" />
          </mxGeometry>
        </mxCell>
        <mxCell id="qJ_-mEPs5X0DL_JbNhQ2-8" value="DIM_CUSTOMER_ID INT NOT NULL" style="shape=partialRectangle;html=1;whiteSpace=wrap;connectable=0;fillColor=none;top=0;left=0;bottom=0;right=0;align=left;spacingLeft=6;overflow=hidden;strokeColor=inherit;fontSize=16;" parent="qJ_-mEPs5X0DL_JbNhQ2-6" vertex="1">
          <mxGeometry x="89" width="311" height="30" as="geometry">
            <mxRectangle width="311" height="30" as="alternateBounds" />
          </mxGeometry>
        </mxCell>
        <mxCell id="qJ_-mEPs5X0DL_JbNhQ2-224" value="" style="shape=tableRow;horizontal=0;startSize=0;swimlaneHead=0;swimlaneBody=0;top=0;left=0;bottom=0;right=0;collapsible=0;dropTarget=0;fillColor=none;points=[[0,0.5],[1,0.5]];portConstraint=eastwest;strokeColor=inherit;fontSize=16;" parent="qJ_-mEPs5X0DL_JbNhQ2-5" vertex="1">
          <mxGeometry y="60" width="400" height="30" as="geometry" />
        </mxCell>
        <mxCell id="qJ_-mEPs5X0DL_JbNhQ2-225" value="FK" style="shape=partialRectangle;html=1;whiteSpace=wrap;connectable=0;fillColor=none;top=0;left=0;bottom=0;right=0;overflow=hidden;pointerEvents=1;strokeColor=inherit;fontSize=16;" parent="qJ_-mEPs5X0DL_JbNhQ2-224" vertex="1">
          <mxGeometry width="89" height="30" as="geometry">
            <mxRectangle width="89" height="30" as="alternateBounds" />
          </mxGeometry>
        </mxCell>
        <mxCell id="qJ_-mEPs5X0DL_JbNhQ2-226" value="DIM_CITY_ID INT NOT NULL" style="shape=partialRectangle;html=1;whiteSpace=wrap;connectable=0;fillColor=none;top=0;left=0;bottom=0;right=0;align=left;spacingLeft=6;overflow=hidden;strokeColor=inherit;fontSize=16;" parent="qJ_-mEPs5X0DL_JbNhQ2-224" vertex="1">
          <mxGeometry x="89" width="311" height="30" as="geometry">
            <mxRectangle width="311" height="30" as="alternateBounds" />
          </mxGeometry>
        </mxCell>
        <mxCell id="qJ_-mEPs5X0DL_JbNhQ2-9" value="" style="shape=tableRow;horizontal=0;startSize=0;swimlaneHead=0;swimlaneBody=0;top=0;left=0;bottom=0;right=0;collapsible=0;dropTarget=0;fillColor=none;points=[[0,0.5],[1,0.5]];portConstraint=eastwest;strokeColor=inherit;fontSize=16;" parent="qJ_-mEPs5X0DL_JbNhQ2-5" vertex="1">
          <mxGeometry y="90" width="400" height="30" as="geometry" />
        </mxCell>
        <mxCell id="qJ_-mEPs5X0DL_JbNhQ2-10" value="" style="shape=partialRectangle;html=1;whiteSpace=wrap;connectable=0;fillColor=none;top=0;left=0;bottom=0;right=0;overflow=hidden;strokeColor=inherit;fontSize=16;" parent="qJ_-mEPs5X0DL_JbNhQ2-9" vertex="1">
          <mxGeometry width="89" height="30" as="geometry">
            <mxRectangle width="89" height="30" as="alternateBounds" />
          </mxGeometry>
        </mxCell>
        <mxCell id="qJ_-mEPs5X0DL_JbNhQ2-11" value="FIRST_NAME VARCHAR NOT NULL" style="shape=partialRectangle;html=1;whiteSpace=wrap;connectable=0;fillColor=none;top=0;left=0;bottom=0;right=0;align=left;spacingLeft=6;overflow=hidden;strokeColor=inherit;fontSize=16;" parent="qJ_-mEPs5X0DL_JbNhQ2-9" vertex="1">
          <mxGeometry x="89" width="311" height="30" as="geometry">
            <mxRectangle width="311" height="30" as="alternateBounds" />
          </mxGeometry>
        </mxCell>
        <mxCell id="qJ_-mEPs5X0DL_JbNhQ2-12" value="" style="shape=tableRow;horizontal=0;startSize=0;swimlaneHead=0;swimlaneBody=0;top=0;left=0;bottom=0;right=0;collapsible=0;dropTarget=0;fillColor=none;points=[[0,0.5],[1,0.5]];portConstraint=eastwest;strokeColor=inherit;fontSize=16;" parent="qJ_-mEPs5X0DL_JbNhQ2-5" vertex="1">
          <mxGeometry y="120" width="400" height="30" as="geometry" />
        </mxCell>
        <mxCell id="qJ_-mEPs5X0DL_JbNhQ2-13" value="" style="shape=partialRectangle;html=1;whiteSpace=wrap;connectable=0;fillColor=none;top=0;left=0;bottom=0;right=0;overflow=hidden;strokeColor=inherit;fontSize=16;" parent="qJ_-mEPs5X0DL_JbNhQ2-12" vertex="1">
          <mxGeometry width="89" height="30" as="geometry">
            <mxRectangle width="89" height="30" as="alternateBounds" />
          </mxGeometry>
        </mxCell>
        <mxCell id="qJ_-mEPs5X0DL_JbNhQ2-14" value="LAST_NAME VARCHAR NOT NULL" style="shape=partialRectangle;html=1;whiteSpace=wrap;connectable=0;fillColor=none;top=0;left=0;bottom=0;right=0;align=left;spacingLeft=6;overflow=hidden;strokeColor=inherit;fontSize=16;" parent="qJ_-mEPs5X0DL_JbNhQ2-12" vertex="1">
          <mxGeometry x="89" width="311" height="30" as="geometry">
            <mxRectangle width="311" height="30" as="alternateBounds" />
          </mxGeometry>
        </mxCell>
        <mxCell id="qJ_-mEPs5X0DL_JbNhQ2-64" value="" style="shape=tableRow;horizontal=0;startSize=0;swimlaneHead=0;swimlaneBody=0;top=0;left=0;bottom=0;right=0;collapsible=0;dropTarget=0;fillColor=none;points=[[0,0.5],[1,0.5]];portConstraint=eastwest;strokeColor=inherit;fontSize=16;" parent="qJ_-mEPs5X0DL_JbNhQ2-5" vertex="1">
          <mxGeometry y="150" width="400" height="30" as="geometry" />
        </mxCell>
        <mxCell id="qJ_-mEPs5X0DL_JbNhQ2-65" value="UNQ" style="shape=partialRectangle;html=1;whiteSpace=wrap;connectable=0;fillColor=none;top=0;left=0;bottom=0;right=0;overflow=hidden;strokeColor=inherit;fontSize=16;" parent="qJ_-mEPs5X0DL_JbNhQ2-64" vertex="1">
          <mxGeometry width="89" height="30" as="geometry">
            <mxRectangle width="89" height="30" as="alternateBounds" />
          </mxGeometry>
        </mxCell>
        <mxCell id="qJ_-mEPs5X0DL_JbNhQ2-66" value="EMAIL VARCHAR NOT NULL" style="shape=partialRectangle;html=1;whiteSpace=wrap;connectable=0;fillColor=none;top=0;left=0;bottom=0;right=0;align=left;spacingLeft=6;overflow=hidden;strokeColor=inherit;fontSize=16;" parent="qJ_-mEPs5X0DL_JbNhQ2-64" vertex="1">
          <mxGeometry x="89" width="311" height="30" as="geometry">
            <mxRectangle width="311" height="30" as="alternateBounds" />
          </mxGeometry>
        </mxCell>
        <mxCell id="qJ_-mEPs5X0DL_JbNhQ2-67" value="" style="shape=tableRow;horizontal=0;startSize=0;swimlaneHead=0;swimlaneBody=0;top=0;left=0;bottom=0;right=0;collapsible=0;dropTarget=0;fillColor=none;points=[[0,0.5],[1,0.5]];portConstraint=eastwest;strokeColor=inherit;fontSize=16;" parent="qJ_-mEPs5X0DL_JbNhQ2-5" vertex="1">
          <mxGeometry y="180" width="400" height="30" as="geometry" />
        </mxCell>
        <mxCell id="qJ_-mEPs5X0DL_JbNhQ2-68" value="" style="shape=partialRectangle;html=1;whiteSpace=wrap;connectable=0;fillColor=none;top=0;left=0;bottom=0;right=0;overflow=hidden;strokeColor=inherit;fontSize=16;" parent="qJ_-mEPs5X0DL_JbNhQ2-67" vertex="1">
          <mxGeometry width="89" height="30" as="geometry">
            <mxRectangle width="89" height="30" as="alternateBounds" />
          </mxGeometry>
        </mxCell>
        <mxCell id="qJ_-mEPs5X0DL_JbNhQ2-69" value="PHONE_NUMBER VARCHAR NOT NULL" style="shape=partialRectangle;html=1;whiteSpace=wrap;connectable=0;fillColor=none;top=0;left=0;bottom=0;right=0;align=left;spacingLeft=6;overflow=hidden;strokeColor=inherit;fontSize=16;" parent="qJ_-mEPs5X0DL_JbNhQ2-67" vertex="1">
          <mxGeometry x="89" width="311" height="30" as="geometry">
            <mxRectangle width="311" height="30" as="alternateBounds" />
          </mxGeometry>
        </mxCell>
        <mxCell id="qJ_-mEPs5X0DL_JbNhQ2-70" value="" style="shape=tableRow;horizontal=0;startSize=0;swimlaneHead=0;swimlaneBody=0;top=0;left=0;bottom=0;right=0;collapsible=0;dropTarget=0;fillColor=none;points=[[0,0.5],[1,0.5]];portConstraint=eastwest;strokeColor=inherit;fontSize=16;" parent="qJ_-mEPs5X0DL_JbNhQ2-5" vertex="1">
          <mxGeometry y="210" width="400" height="30" as="geometry" />
        </mxCell>
        <mxCell id="qJ_-mEPs5X0DL_JbNhQ2-71" value="" style="shape=partialRectangle;html=1;whiteSpace=wrap;connectable=0;fillColor=none;top=0;left=0;bottom=0;right=0;overflow=hidden;strokeColor=inherit;fontSize=16;" parent="qJ_-mEPs5X0DL_JbNhQ2-70" vertex="1">
          <mxGeometry width="89" height="30" as="geometry">
            <mxRectangle width="89" height="30" as="alternateBounds" />
          </mxGeometry>
        </mxCell>
        <mxCell id="qJ_-mEPs5X0DL_JbNhQ2-72" value="STREET VARCHAR NOT NULL" style="shape=partialRectangle;html=1;whiteSpace=wrap;connectable=0;fillColor=none;top=0;left=0;bottom=0;right=0;align=left;spacingLeft=6;overflow=hidden;strokeColor=inherit;fontSize=16;" parent="qJ_-mEPs5X0DL_JbNhQ2-70" vertex="1">
          <mxGeometry x="89" width="311" height="30" as="geometry">
            <mxRectangle width="311" height="30" as="alternateBounds" />
          </mxGeometry>
        </mxCell>
        <mxCell id="qJ_-mEPs5X0DL_JbNhQ2-15" value="DIM_DATE" style="shape=table;startSize=30;container=1;collapsible=0;childLayout=tableLayout;fixedRows=1;rowLines=0;fontStyle=0;strokeColor=default;fontSize=16;" parent="1" vertex="1">
          <mxGeometry x="1640" y="426" width="300" height="240" as="geometry" />
        </mxCell>
        <mxCell id="qJ_-mEPs5X0DL_JbNhQ2-16" value="" style="shape=tableRow;horizontal=0;startSize=0;swimlaneHead=0;swimlaneBody=0;top=0;left=0;bottom=0;right=0;collapsible=0;dropTarget=0;fillColor=none;points=[[0,0.5],[1,0.5]];portConstraint=eastwest;strokeColor=inherit;fontSize=16;" parent="qJ_-mEPs5X0DL_JbNhQ2-15" vertex="1">
          <mxGeometry y="30" width="300" height="30" as="geometry" />
        </mxCell>
        <mxCell id="qJ_-mEPs5X0DL_JbNhQ2-17" value="PK" style="shape=partialRectangle;html=1;whiteSpace=wrap;connectable=0;fillColor=none;top=0;left=0;bottom=0;right=0;overflow=hidden;pointerEvents=1;strokeColor=inherit;fontSize=16;" parent="qJ_-mEPs5X0DL_JbNhQ2-16" vertex="1">
          <mxGeometry width="67" height="30" as="geometry">
            <mxRectangle width="67" height="30" as="alternateBounds" />
          </mxGeometry>
        </mxCell>
        <mxCell id="qJ_-mEPs5X0DL_JbNhQ2-18" value="DIM_DATE_ID INT NOT NULL" style="shape=partialRectangle;html=1;whiteSpace=wrap;connectable=0;fillColor=none;top=0;left=0;bottom=0;right=0;align=left;spacingLeft=6;overflow=hidden;strokeColor=inherit;fontSize=16;" parent="qJ_-mEPs5X0DL_JbNhQ2-16" vertex="1">
          <mxGeometry x="67" width="233" height="30" as="geometry">
            <mxRectangle width="233" height="30" as="alternateBounds" />
          </mxGeometry>
        </mxCell>
        <mxCell id="CE3YJO3d3gAJRDhFr6tY-10" value="" style="shape=tableRow;horizontal=0;startSize=0;swimlaneHead=0;swimlaneBody=0;top=0;left=0;bottom=0;right=0;collapsible=0;dropTarget=0;fillColor=none;points=[[0,0.5],[1,0.5]];portConstraint=eastwest;strokeColor=inherit;fontSize=16;" parent="qJ_-mEPs5X0DL_JbNhQ2-15" vertex="1">
          <mxGeometry y="60" width="300" height="30" as="geometry" />
        </mxCell>
        <mxCell id="CE3YJO3d3gAJRDhFr6tY-11" value="UNQ" style="shape=partialRectangle;html=1;whiteSpace=wrap;connectable=0;fillColor=none;top=0;left=0;bottom=0;right=0;overflow=hidden;strokeColor=inherit;fontSize=16;" parent="CE3YJO3d3gAJRDhFr6tY-10" vertex="1">
          <mxGeometry width="67" height="30" as="geometry">
            <mxRectangle width="67" height="30" as="alternateBounds" />
          </mxGeometry>
        </mxCell>
        <mxCell id="CE3YJO3d3gAJRDhFr6tY-12" value="DATE DATE NOT NULL" style="shape=partialRectangle;html=1;whiteSpace=wrap;connectable=0;fillColor=none;top=0;left=0;bottom=0;right=0;align=left;spacingLeft=6;overflow=hidden;strokeColor=inherit;fontSize=16;" parent="CE3YJO3d3gAJRDhFr6tY-10" vertex="1">
          <mxGeometry x="67" width="233" height="30" as="geometry">
            <mxRectangle width="233" height="30" as="alternateBounds" />
          </mxGeometry>
        </mxCell>
        <mxCell id="qJ_-mEPs5X0DL_JbNhQ2-19" value="" style="shape=tableRow;horizontal=0;startSize=0;swimlaneHead=0;swimlaneBody=0;top=0;left=0;bottom=0;right=0;collapsible=0;dropTarget=0;fillColor=none;points=[[0,0.5],[1,0.5]];portConstraint=eastwest;strokeColor=inherit;fontSize=16;" parent="qJ_-mEPs5X0DL_JbNhQ2-15" vertex="1">
          <mxGeometry y="90" width="300" height="30" as="geometry" />
        </mxCell>
        <mxCell id="qJ_-mEPs5X0DL_JbNhQ2-20" value="" style="shape=partialRectangle;html=1;whiteSpace=wrap;connectable=0;fillColor=none;top=0;left=0;bottom=0;right=0;overflow=hidden;strokeColor=inherit;fontSize=16;" parent="qJ_-mEPs5X0DL_JbNhQ2-19" vertex="1">
          <mxGeometry width="67" height="30" as="geometry">
            <mxRectangle width="67" height="30" as="alternateBounds" />
          </mxGeometry>
        </mxCell>
        <mxCell id="qJ_-mEPs5X0DL_JbNhQ2-21" value="YEAR INT NOT NULL" style="shape=partialRectangle;html=1;whiteSpace=wrap;connectable=0;fillColor=none;top=0;left=0;bottom=0;right=0;align=left;spacingLeft=6;overflow=hidden;strokeColor=inherit;fontSize=16;" parent="qJ_-mEPs5X0DL_JbNhQ2-19" vertex="1">
          <mxGeometry x="67" width="233" height="30" as="geometry">
            <mxRectangle width="233" height="30" as="alternateBounds" />
          </mxGeometry>
        </mxCell>
        <mxCell id="qJ_-mEPs5X0DL_JbNhQ2-22" value="" style="shape=tableRow;horizontal=0;startSize=0;swimlaneHead=0;swimlaneBody=0;top=0;left=0;bottom=0;right=0;collapsible=0;dropTarget=0;fillColor=none;points=[[0,0.5],[1,0.5]];portConstraint=eastwest;strokeColor=inherit;fontSize=16;" parent="qJ_-mEPs5X0DL_JbNhQ2-15" vertex="1">
          <mxGeometry y="120" width="300" height="30" as="geometry" />
        </mxCell>
        <mxCell id="qJ_-mEPs5X0DL_JbNhQ2-23" value="" style="shape=partialRectangle;html=1;whiteSpace=wrap;connectable=0;fillColor=none;top=0;left=0;bottom=0;right=0;overflow=hidden;strokeColor=inherit;fontSize=16;" parent="qJ_-mEPs5X0DL_JbNhQ2-22" vertex="1">
          <mxGeometry width="67" height="30" as="geometry">
            <mxRectangle width="67" height="30" as="alternateBounds" />
          </mxGeometry>
        </mxCell>
        <mxCell id="qJ_-mEPs5X0DL_JbNhQ2-24" value="QUARTER INT NOT NULL" style="shape=partialRectangle;html=1;whiteSpace=wrap;connectable=0;fillColor=none;top=0;left=0;bottom=0;right=0;align=left;spacingLeft=6;overflow=hidden;strokeColor=inherit;fontSize=16;" parent="qJ_-mEPs5X0DL_JbNhQ2-22" vertex="1">
          <mxGeometry x="67" width="233" height="30" as="geometry">
            <mxRectangle width="233" height="30" as="alternateBounds" />
          </mxGeometry>
        </mxCell>
        <mxCell id="qJ_-mEPs5X0DL_JbNhQ2-55" value="" style="shape=tableRow;horizontal=0;startSize=0;swimlaneHead=0;swimlaneBody=0;top=0;left=0;bottom=0;right=0;collapsible=0;dropTarget=0;fillColor=none;points=[[0,0.5],[1,0.5]];portConstraint=eastwest;strokeColor=inherit;fontSize=16;" parent="qJ_-mEPs5X0DL_JbNhQ2-15" vertex="1">
          <mxGeometry y="150" width="300" height="30" as="geometry" />
        </mxCell>
        <mxCell id="qJ_-mEPs5X0DL_JbNhQ2-56" value="" style="shape=partialRectangle;html=1;whiteSpace=wrap;connectable=0;fillColor=none;top=0;left=0;bottom=0;right=0;overflow=hidden;strokeColor=inherit;fontSize=16;" parent="qJ_-mEPs5X0DL_JbNhQ2-55" vertex="1">
          <mxGeometry width="67" height="30" as="geometry">
            <mxRectangle width="67" height="30" as="alternateBounds" />
          </mxGeometry>
        </mxCell>
        <mxCell id="qJ_-mEPs5X0DL_JbNhQ2-57" value="MONTH INT NOT NULL" style="shape=partialRectangle;html=1;whiteSpace=wrap;connectable=0;fillColor=none;top=0;left=0;bottom=0;right=0;align=left;spacingLeft=6;overflow=hidden;strokeColor=inherit;fontSize=16;" parent="qJ_-mEPs5X0DL_JbNhQ2-55" vertex="1">
          <mxGeometry x="67" width="233" height="30" as="geometry">
            <mxRectangle width="233" height="30" as="alternateBounds" />
          </mxGeometry>
        </mxCell>
        <mxCell id="qJ_-mEPs5X0DL_JbNhQ2-58" value="" style="shape=tableRow;horizontal=0;startSize=0;swimlaneHead=0;swimlaneBody=0;top=0;left=0;bottom=0;right=0;collapsible=0;dropTarget=0;fillColor=none;points=[[0,0.5],[1,0.5]];portConstraint=eastwest;strokeColor=inherit;fontSize=16;" parent="qJ_-mEPs5X0DL_JbNhQ2-15" vertex="1">
          <mxGeometry y="180" width="300" height="30" as="geometry" />
        </mxCell>
        <mxCell id="qJ_-mEPs5X0DL_JbNhQ2-59" value="" style="shape=partialRectangle;html=1;whiteSpace=wrap;connectable=0;fillColor=none;top=0;left=0;bottom=0;right=0;overflow=hidden;strokeColor=inherit;fontSize=16;" parent="qJ_-mEPs5X0DL_JbNhQ2-58" vertex="1">
          <mxGeometry width="67" height="30" as="geometry">
            <mxRectangle width="67" height="30" as="alternateBounds" />
          </mxGeometry>
        </mxCell>
        <mxCell id="qJ_-mEPs5X0DL_JbNhQ2-60" value="WEEK INT NOT NULL" style="shape=partialRectangle;html=1;whiteSpace=wrap;connectable=0;fillColor=none;top=0;left=0;bottom=0;right=0;align=left;spacingLeft=6;overflow=hidden;strokeColor=inherit;fontSize=16;" parent="qJ_-mEPs5X0DL_JbNhQ2-58" vertex="1">
          <mxGeometry x="67" width="233" height="30" as="geometry">
            <mxRectangle width="233" height="30" as="alternateBounds" />
          </mxGeometry>
        </mxCell>
        <mxCell id="qJ_-mEPs5X0DL_JbNhQ2-61" value="" style="shape=tableRow;horizontal=0;startSize=0;swimlaneHead=0;swimlaneBody=0;top=0;left=0;bottom=0;right=0;collapsible=0;dropTarget=0;fillColor=none;points=[[0,0.5],[1,0.5]];portConstraint=eastwest;strokeColor=inherit;fontSize=16;" parent="qJ_-mEPs5X0DL_JbNhQ2-15" vertex="1">
          <mxGeometry y="210" width="300" height="30" as="geometry" />
        </mxCell>
        <mxCell id="qJ_-mEPs5X0DL_JbNhQ2-62" value="" style="shape=partialRectangle;html=1;whiteSpace=wrap;connectable=0;fillColor=none;top=0;left=0;bottom=0;right=0;overflow=hidden;strokeColor=inherit;fontSize=16;" parent="qJ_-mEPs5X0DL_JbNhQ2-61" vertex="1">
          <mxGeometry width="67" height="30" as="geometry">
            <mxRectangle width="67" height="30" as="alternateBounds" />
          </mxGeometry>
        </mxCell>
        <mxCell id="qJ_-mEPs5X0DL_JbNhQ2-63" value="DAY INT NOT NULL" style="shape=partialRectangle;html=1;whiteSpace=wrap;connectable=0;fillColor=none;top=0;left=0;bottom=0;right=0;align=left;spacingLeft=6;overflow=hidden;strokeColor=inherit;fontSize=16;" parent="qJ_-mEPs5X0DL_JbNhQ2-61" vertex="1">
          <mxGeometry x="67" width="233" height="30" as="geometry">
            <mxRectangle width="233" height="30" as="alternateBounds" />
          </mxGeometry>
        </mxCell>
        <mxCell id="qJ_-mEPs5X0DL_JbNhQ2-25" value="FACT_TABLE" style="shape=table;startSize=30;container=1;collapsible=0;childLayout=tableLayout;fixedRows=1;rowLines=0;fontStyle=0;strokeColor=default;fontSize=16;" parent="1" vertex="1">
          <mxGeometry x="630" y="630" width="440" height="390" as="geometry" />
        </mxCell>
        <mxCell id="qJ_-mEPs5X0DL_JbNhQ2-117" value="" style="shape=tableRow;horizontal=0;startSize=0;swimlaneHead=0;swimlaneBody=0;top=0;left=0;bottom=0;right=0;collapsible=0;dropTarget=0;fillColor=none;points=[[0,0.5],[1,0.5]];portConstraint=eastwest;strokeColor=inherit;fontSize=16;" parent="qJ_-mEPs5X0DL_JbNhQ2-25" vertex="1">
          <mxGeometry y="30" width="440" height="30" as="geometry" />
        </mxCell>
        <mxCell id="qJ_-mEPs5X0DL_JbNhQ2-118" value="FK" style="shape=partialRectangle;html=1;whiteSpace=wrap;connectable=0;fillColor=none;top=0;left=0;bottom=0;right=0;overflow=hidden;strokeColor=inherit;fontSize=16;" parent="qJ_-mEPs5X0DL_JbNhQ2-117" vertex="1">
          <mxGeometry width="98" height="30" as="geometry">
            <mxRectangle width="98" height="30" as="alternateBounds" />
          </mxGeometry>
        </mxCell>
        <mxCell id="qJ_-mEPs5X0DL_JbNhQ2-119" value="DIM_CUSTOMER_ID&lt;span style=&quot;background-color: transparent; color: light-dark(rgb(0, 0, 0), rgb(255, 255, 255));&quot;&gt;&amp;nbsp;INT NOT NULL&lt;/span&gt;" style="shape=partialRectangle;html=1;whiteSpace=wrap;connectable=0;fillColor=none;top=0;left=0;bottom=0;right=0;align=left;spacingLeft=6;overflow=hidden;strokeColor=inherit;fontSize=16;" parent="qJ_-mEPs5X0DL_JbNhQ2-117" vertex="1">
          <mxGeometry x="98" width="342" height="30" as="geometry">
            <mxRectangle width="342" height="30" as="alternateBounds" />
          </mxGeometry>
        </mxCell>
        <mxCell id="qJ_-mEPs5X0DL_JbNhQ2-113" value="" style="shape=tableRow;horizontal=0;startSize=0;swimlaneHead=0;swimlaneBody=0;top=0;left=0;bottom=0;right=0;collapsible=0;dropTarget=0;fillColor=none;points=[[0,0.5],[1,0.5]];portConstraint=eastwest;strokeColor=inherit;fontSize=16;" parent="qJ_-mEPs5X0DL_JbNhQ2-25" vertex="1">
          <mxGeometry y="60" width="440" height="30" as="geometry" />
        </mxCell>
        <mxCell id="qJ_-mEPs5X0DL_JbNhQ2-114" value="FK" style="shape=partialRectangle;html=1;whiteSpace=wrap;connectable=0;fillColor=none;top=0;left=0;bottom=0;right=0;overflow=hidden;pointerEvents=1;strokeColor=inherit;fontSize=16;" parent="qJ_-mEPs5X0DL_JbNhQ2-113" vertex="1">
          <mxGeometry width="98" height="30" as="geometry">
            <mxRectangle width="98" height="30" as="alternateBounds" />
          </mxGeometry>
        </mxCell>
        <mxCell id="qJ_-mEPs5X0DL_JbNhQ2-115" value="DIM_ORDER_ID INT NOT NULL" style="shape=partialRectangle;html=1;whiteSpace=wrap;connectable=0;fillColor=none;top=0;left=0;bottom=0;right=0;align=left;spacingLeft=6;overflow=hidden;strokeColor=inherit;fontSize=16;" parent="qJ_-mEPs5X0DL_JbNhQ2-113" vertex="1">
          <mxGeometry x="98" width="342" height="30" as="geometry">
            <mxRectangle width="342" height="30" as="alternateBounds" />
          </mxGeometry>
        </mxCell>
        <mxCell id="qJ_-mEPs5X0DL_JbNhQ2-29" value="" style="shape=tableRow;horizontal=0;startSize=0;swimlaneHead=0;swimlaneBody=0;top=0;left=0;bottom=0;right=0;collapsible=0;dropTarget=0;fillColor=none;points=[[0,0.5],[1,0.5]];portConstraint=eastwest;strokeColor=inherit;fontSize=16;" parent="qJ_-mEPs5X0DL_JbNhQ2-25" vertex="1">
          <mxGeometry y="90" width="440" height="30" as="geometry" />
        </mxCell>
        <mxCell id="qJ_-mEPs5X0DL_JbNhQ2-30" value="FK" style="shape=partialRectangle;html=1;whiteSpace=wrap;connectable=0;fillColor=none;top=0;left=0;bottom=0;right=0;overflow=hidden;strokeColor=inherit;fontSize=16;" parent="qJ_-mEPs5X0DL_JbNhQ2-29" vertex="1">
          <mxGeometry width="98" height="30" as="geometry">
            <mxRectangle width="98" height="30" as="alternateBounds" />
          </mxGeometry>
        </mxCell>
        <mxCell id="qJ_-mEPs5X0DL_JbNhQ2-31" value="DIM_PRODUCT_ID INT NOT NULL" style="shape=partialRectangle;html=1;whiteSpace=wrap;connectable=0;fillColor=none;top=0;left=0;bottom=0;right=0;align=left;spacingLeft=6;overflow=hidden;strokeColor=inherit;fontSize=16;" parent="qJ_-mEPs5X0DL_JbNhQ2-29" vertex="1">
          <mxGeometry x="98" width="342" height="30" as="geometry">
            <mxRectangle width="342" height="30" as="alternateBounds" />
          </mxGeometry>
        </mxCell>
        <mxCell id="qJ_-mEPs5X0DL_JbNhQ2-145" value="" style="shape=tableRow;horizontal=0;startSize=0;swimlaneHead=0;swimlaneBody=0;top=0;left=0;bottom=0;right=0;collapsible=0;dropTarget=0;fillColor=none;points=[[0,0.5],[1,0.5]];portConstraint=eastwest;strokeColor=inherit;fontSize=16;" parent="qJ_-mEPs5X0DL_JbNhQ2-25" vertex="1">
          <mxGeometry y="120" width="440" height="30" as="geometry" />
        </mxCell>
        <mxCell id="qJ_-mEPs5X0DL_JbNhQ2-146" value="" style="shape=partialRectangle;html=1;whiteSpace=wrap;connectable=0;fillColor=none;top=0;left=0;bottom=0;right=0;overflow=hidden;strokeColor=inherit;fontSize=16;" parent="qJ_-mEPs5X0DL_JbNhQ2-145" vertex="1">
          <mxGeometry width="98" height="30" as="geometry">
            <mxRectangle width="98" height="30" as="alternateBounds" />
          </mxGeometry>
        </mxCell>
        <mxCell id="qJ_-mEPs5X0DL_JbNhQ2-147" value="COST_PER_100G DECIMAL NOT NULL" style="shape=partialRectangle;html=1;whiteSpace=wrap;connectable=0;fillColor=none;top=0;left=0;bottom=0;right=0;align=left;spacingLeft=6;overflow=hidden;strokeColor=inherit;fontSize=16;" parent="qJ_-mEPs5X0DL_JbNhQ2-145" vertex="1">
          <mxGeometry x="98" width="342" height="30" as="geometry">
            <mxRectangle width="342" height="30" as="alternateBounds" />
          </mxGeometry>
        </mxCell>
        <mxCell id="qJ_-mEPs5X0DL_JbNhQ2-227" value="" style="shape=tableRow;horizontal=0;startSize=0;swimlaneHead=0;swimlaneBody=0;top=0;left=0;bottom=0;right=0;collapsible=0;dropTarget=0;fillColor=none;points=[[0,0.5],[1,0.5]];portConstraint=eastwest;strokeColor=inherit;fontSize=16;" parent="qJ_-mEPs5X0DL_JbNhQ2-25" vertex="1">
          <mxGeometry y="150" width="440" height="30" as="geometry" />
        </mxCell>
        <mxCell id="qJ_-mEPs5X0DL_JbNhQ2-228" value="" style="shape=partialRectangle;html=1;whiteSpace=wrap;connectable=0;fillColor=none;top=0;left=0;bottom=0;right=0;overflow=hidden;strokeColor=inherit;fontSize=16;" parent="qJ_-mEPs5X0DL_JbNhQ2-227" vertex="1">
          <mxGeometry width="98" height="30" as="geometry">
            <mxRectangle width="98" height="30" as="alternateBounds" />
          </mxGeometry>
        </mxCell>
        <mxCell id="qJ_-mEPs5X0DL_JbNhQ2-229" value="UNIT_SIZE INT NOT NULL" style="shape=partialRectangle;html=1;whiteSpace=wrap;connectable=0;fillColor=none;top=0;left=0;bottom=0;right=0;align=left;spacingLeft=6;overflow=hidden;strokeColor=inherit;fontSize=16;" parent="qJ_-mEPs5X0DL_JbNhQ2-227" vertex="1">
          <mxGeometry x="98" width="342" height="30" as="geometry">
            <mxRectangle width="342" height="30" as="alternateBounds" />
          </mxGeometry>
        </mxCell>
        <mxCell id="qJ_-mEPs5X0DL_JbNhQ2-142" value="" style="shape=tableRow;horizontal=0;startSize=0;swimlaneHead=0;swimlaneBody=0;top=0;left=0;bottom=0;right=0;collapsible=0;dropTarget=0;fillColor=none;points=[[0,0.5],[1,0.5]];portConstraint=eastwest;strokeColor=inherit;fontSize=16;" parent="qJ_-mEPs5X0DL_JbNhQ2-25" vertex="1">
          <mxGeometry y="180" width="440" height="30" as="geometry" />
        </mxCell>
        <mxCell id="qJ_-mEPs5X0DL_JbNhQ2-143" value="" style="shape=partialRectangle;html=1;whiteSpace=wrap;connectable=0;fillColor=none;top=0;left=0;bottom=0;right=0;overflow=hidden;strokeColor=inherit;fontSize=16;" parent="qJ_-mEPs5X0DL_JbNhQ2-142" vertex="1">
          <mxGeometry width="98" height="30" as="geometry">
            <mxRectangle width="98" height="30" as="alternateBounds" />
          </mxGeometry>
        </mxCell>
        <mxCell id="qJ_-mEPs5X0DL_JbNhQ2-144" value="UNIT_PRICE DECIMAL NOT NULL" style="shape=partialRectangle;html=1;whiteSpace=wrap;connectable=0;fillColor=none;top=0;left=0;bottom=0;right=0;align=left;spacingLeft=6;overflow=hidden;strokeColor=inherit;fontSize=16;" parent="qJ_-mEPs5X0DL_JbNhQ2-142" vertex="1">
          <mxGeometry x="98" width="342" height="30" as="geometry">
            <mxRectangle width="342" height="30" as="alternateBounds" />
          </mxGeometry>
        </mxCell>
        <mxCell id="qJ_-mEPs5X0DL_JbNhQ2-230" value="" style="shape=tableRow;horizontal=0;startSize=0;swimlaneHead=0;swimlaneBody=0;top=0;left=0;bottom=0;right=0;collapsible=0;dropTarget=0;fillColor=none;points=[[0,0.5],[1,0.5]];portConstraint=eastwest;strokeColor=inherit;fontSize=16;" parent="qJ_-mEPs5X0DL_JbNhQ2-25" vertex="1">
          <mxGeometry y="210" width="440" height="30" as="geometry" />
        </mxCell>
        <mxCell id="qJ_-mEPs5X0DL_JbNhQ2-231" value="" style="shape=partialRectangle;html=1;whiteSpace=wrap;connectable=0;fillColor=none;top=0;left=0;bottom=0;right=0;overflow=hidden;strokeColor=inherit;fontSize=16;" parent="qJ_-mEPs5X0DL_JbNhQ2-230" vertex="1">
          <mxGeometry width="98" height="30" as="geometry">
            <mxRectangle width="98" height="30" as="alternateBounds" />
          </mxGeometry>
        </mxCell>
        <mxCell id="qJ_-mEPs5X0DL_JbNhQ2-232" value="UNIT_COST DECIMAL NOT NULL" style="shape=partialRectangle;html=1;whiteSpace=wrap;connectable=0;fillColor=none;top=0;left=0;bottom=0;right=0;align=left;spacingLeft=6;overflow=hidden;strokeColor=inherit;fontSize=16;" parent="qJ_-mEPs5X0DL_JbNhQ2-230" vertex="1">
          <mxGeometry x="98" width="342" height="30" as="geometry">
            <mxRectangle width="342" height="30" as="alternateBounds" />
          </mxGeometry>
        </mxCell>
        <mxCell id="qJ_-mEPs5X0DL_JbNhQ2-94" value="" style="shape=tableRow;horizontal=0;startSize=0;swimlaneHead=0;swimlaneBody=0;top=0;left=0;bottom=0;right=0;collapsible=0;dropTarget=0;fillColor=none;points=[[0,0.5],[1,0.5]];portConstraint=eastwest;strokeColor=inherit;fontSize=16;" parent="qJ_-mEPs5X0DL_JbNhQ2-25" vertex="1">
          <mxGeometry y="240" width="440" height="30" as="geometry" />
        </mxCell>
        <mxCell id="qJ_-mEPs5X0DL_JbNhQ2-95" value="" style="shape=partialRectangle;html=1;whiteSpace=wrap;connectable=0;fillColor=none;top=0;left=0;bottom=0;right=0;overflow=hidden;strokeColor=inherit;fontSize=16;" parent="qJ_-mEPs5X0DL_JbNhQ2-94" vertex="1">
          <mxGeometry width="98" height="30" as="geometry">
            <mxRectangle width="98" height="30" as="alternateBounds" />
          </mxGeometry>
        </mxCell>
        <mxCell id="qJ_-mEPs5X0DL_JbNhQ2-96" value="UNIT_PROFIT DECIMAL NOT NULL" style="shape=partialRectangle;html=1;whiteSpace=wrap;connectable=0;fillColor=none;top=0;left=0;bottom=0;right=0;align=left;spacingLeft=6;overflow=hidden;strokeColor=inherit;fontSize=16;" parent="qJ_-mEPs5X0DL_JbNhQ2-94" vertex="1">
          <mxGeometry x="98" width="342" height="30" as="geometry">
            <mxRectangle width="342" height="30" as="alternateBounds" />
          </mxGeometry>
        </mxCell>
        <mxCell id="qJ_-mEPs5X0DL_JbNhQ2-32" value="" style="shape=tableRow;horizontal=0;startSize=0;swimlaneHead=0;swimlaneBody=0;top=0;left=0;bottom=0;right=0;collapsible=0;dropTarget=0;fillColor=none;points=[[0,0.5],[1,0.5]];portConstraint=eastwest;strokeColor=inherit;fontSize=16;" parent="qJ_-mEPs5X0DL_JbNhQ2-25" vertex="1">
          <mxGeometry y="270" width="440" height="30" as="geometry" />
        </mxCell>
        <mxCell id="qJ_-mEPs5X0DL_JbNhQ2-33" value="" style="shape=partialRectangle;html=1;whiteSpace=wrap;connectable=0;fillColor=none;top=0;left=0;bottom=0;right=0;overflow=hidden;strokeColor=inherit;fontSize=16;" parent="qJ_-mEPs5X0DL_JbNhQ2-32" vertex="1">
          <mxGeometry width="98" height="30" as="geometry">
            <mxRectangle width="98" height="30" as="alternateBounds" />
          </mxGeometry>
        </mxCell>
        <mxCell id="qJ_-mEPs5X0DL_JbNhQ2-34" value="QUANTITY INT NOT NULL" style="shape=partialRectangle;html=1;whiteSpace=wrap;connectable=0;fillColor=none;top=0;left=0;bottom=0;right=0;align=left;spacingLeft=6;overflow=hidden;strokeColor=inherit;fontSize=16;" parent="qJ_-mEPs5X0DL_JbNhQ2-32" vertex="1">
          <mxGeometry x="98" width="342" height="30" as="geometry">
            <mxRectangle width="342" height="30" as="alternateBounds" />
          </mxGeometry>
        </mxCell>
        <mxCell id="CE3YJO3d3gAJRDhFr6tY-1" value="" style="shape=tableRow;horizontal=0;startSize=0;swimlaneHead=0;swimlaneBody=0;top=0;left=0;bottom=0;right=0;collapsible=0;dropTarget=0;fillColor=none;points=[[0,0.5],[1,0.5]];portConstraint=eastwest;strokeColor=inherit;fontSize=16;" parent="qJ_-mEPs5X0DL_JbNhQ2-25" vertex="1">
          <mxGeometry y="300" width="440" height="30" as="geometry" />
        </mxCell>
        <mxCell id="CE3YJO3d3gAJRDhFr6tY-2" value="" style="shape=partialRectangle;html=1;whiteSpace=wrap;connectable=0;fillColor=none;top=0;left=0;bottom=0;right=0;overflow=hidden;strokeColor=inherit;fontSize=16;" parent="CE3YJO3d3gAJRDhFr6tY-1" vertex="1">
          <mxGeometry width="98" height="30" as="geometry">
            <mxRectangle width="98" height="30" as="alternateBounds" />
          </mxGeometry>
        </mxCell>
        <mxCell id="CE3YJO3d3gAJRDhFr6tY-3" value="ORDER_LINE_PRICE DECIMAL NOT NULL" style="shape=partialRectangle;html=1;whiteSpace=wrap;connectable=0;fillColor=none;top=0;left=0;bottom=0;right=0;align=left;spacingLeft=6;overflow=hidden;strokeColor=inherit;fontSize=16;" parent="CE3YJO3d3gAJRDhFr6tY-1" vertex="1">
          <mxGeometry x="98" width="342" height="30" as="geometry">
            <mxRectangle width="342" height="30" as="alternateBounds" />
          </mxGeometry>
        </mxCell>
        <mxCell id="CE3YJO3d3gAJRDhFr6tY-4" value="" style="shape=tableRow;horizontal=0;startSize=0;swimlaneHead=0;swimlaneBody=0;top=0;left=0;bottom=0;right=0;collapsible=0;dropTarget=0;fillColor=none;points=[[0,0.5],[1,0.5]];portConstraint=eastwest;strokeColor=inherit;fontSize=16;" parent="qJ_-mEPs5X0DL_JbNhQ2-25" vertex="1">
          <mxGeometry y="330" width="440" height="30" as="geometry" />
        </mxCell>
        <mxCell id="CE3YJO3d3gAJRDhFr6tY-5" value="" style="shape=partialRectangle;html=1;whiteSpace=wrap;connectable=0;fillColor=none;top=0;left=0;bottom=0;right=0;overflow=hidden;strokeColor=inherit;fontSize=16;" parent="CE3YJO3d3gAJRDhFr6tY-4" vertex="1">
          <mxGeometry width="98" height="30" as="geometry">
            <mxRectangle width="98" height="30" as="alternateBounds" />
          </mxGeometry>
        </mxCell>
        <mxCell id="CE3YJO3d3gAJRDhFr6tY-6" value="ORDER_LINE_COST DECIMAL NOT NULL" style="shape=partialRectangle;html=1;whiteSpace=wrap;connectable=0;fillColor=none;top=0;left=0;bottom=0;right=0;align=left;spacingLeft=6;overflow=hidden;strokeColor=inherit;fontSize=16;" parent="CE3YJO3d3gAJRDhFr6tY-4" vertex="1">
          <mxGeometry x="98" width="342" height="30" as="geometry">
            <mxRectangle width="342" height="30" as="alternateBounds" />
          </mxGeometry>
        </mxCell>
        <mxCell id="CE3YJO3d3gAJRDhFr6tY-7" value="" style="shape=tableRow;horizontal=0;startSize=0;swimlaneHead=0;swimlaneBody=0;top=0;left=0;bottom=0;right=0;collapsible=0;dropTarget=0;fillColor=none;points=[[0,0.5],[1,0.5]];portConstraint=eastwest;strokeColor=inherit;fontSize=16;" parent="qJ_-mEPs5X0DL_JbNhQ2-25" vertex="1">
          <mxGeometry y="360" width="440" height="30" as="geometry" />
        </mxCell>
        <mxCell id="CE3YJO3d3gAJRDhFr6tY-8" value="" style="shape=partialRectangle;html=1;whiteSpace=wrap;connectable=0;fillColor=none;top=0;left=0;bottom=0;right=0;overflow=hidden;strokeColor=inherit;fontSize=16;" parent="CE3YJO3d3gAJRDhFr6tY-7" vertex="1">
          <mxGeometry width="98" height="30" as="geometry">
            <mxRectangle width="98" height="30" as="alternateBounds" />
          </mxGeometry>
        </mxCell>
        <mxCell id="CE3YJO3d3gAJRDhFr6tY-9" value="ORDER_LINE_PROFIT DECIMAL NOT NULL" style="shape=partialRectangle;html=1;whiteSpace=wrap;connectable=0;fillColor=none;top=0;left=0;bottom=0;right=0;align=left;spacingLeft=6;overflow=hidden;strokeColor=inherit;fontSize=16;" parent="CE3YJO3d3gAJRDhFr6tY-7" vertex="1">
          <mxGeometry x="98" width="342" height="30" as="geometry">
            <mxRectangle width="342" height="30" as="alternateBounds" />
          </mxGeometry>
        </mxCell>
        <mxCell id="qJ_-mEPs5X0DL_JbNhQ2-45" value="DIM_PRODUCT" style="shape=table;startSize=30;container=1;collapsible=0;childLayout=tableLayout;fixedRows=1;rowLines=0;fontStyle=0;strokeColor=default;fontSize=16;" parent="1" vertex="1">
          <mxGeometry x="1160" y="750" width="410" height="120" as="geometry" />
        </mxCell>
        <mxCell id="qJ_-mEPs5X0DL_JbNhQ2-46" value="" style="shape=tableRow;horizontal=0;startSize=0;swimlaneHead=0;swimlaneBody=0;top=0;left=0;bottom=0;right=0;collapsible=0;dropTarget=0;fillColor=none;points=[[0,0.5],[1,0.5]];portConstraint=eastwest;strokeColor=inherit;fontSize=16;" parent="qJ_-mEPs5X0DL_JbNhQ2-45" vertex="1">
          <mxGeometry y="30" width="410" height="30" as="geometry" />
        </mxCell>
        <mxCell id="qJ_-mEPs5X0DL_JbNhQ2-47" value="PK" style="shape=partialRectangle;html=1;whiteSpace=wrap;connectable=0;fillColor=none;top=0;left=0;bottom=0;right=0;overflow=hidden;pointerEvents=1;strokeColor=inherit;fontSize=16;" parent="qJ_-mEPs5X0DL_JbNhQ2-46" vertex="1">
          <mxGeometry width="91" height="30" as="geometry">
            <mxRectangle width="91" height="30" as="alternateBounds" />
          </mxGeometry>
        </mxCell>
        <mxCell id="qJ_-mEPs5X0DL_JbNhQ2-48" value="DIM_PRODUCT_ID INT NOT NULL" style="shape=partialRectangle;html=1;whiteSpace=wrap;connectable=0;fillColor=none;top=0;left=0;bottom=0;right=0;align=left;spacingLeft=6;overflow=hidden;strokeColor=inherit;fontSize=16;" parent="qJ_-mEPs5X0DL_JbNhQ2-46" vertex="1">
          <mxGeometry x="91" width="319" height="30" as="geometry">
            <mxRectangle width="319" height="30" as="alternateBounds" />
          </mxGeometry>
        </mxCell>
        <mxCell id="qJ_-mEPs5X0DL_JbNhQ2-120" value="" style="shape=tableRow;horizontal=0;startSize=0;swimlaneHead=0;swimlaneBody=0;top=0;left=0;bottom=0;right=0;collapsible=0;dropTarget=0;fillColor=none;points=[[0,0.5],[1,0.5]];portConstraint=eastwest;strokeColor=inherit;fontSize=16;" parent="qJ_-mEPs5X0DL_JbNhQ2-45" vertex="1">
          <mxGeometry y="60" width="410" height="30" as="geometry" />
        </mxCell>
        <mxCell id="qJ_-mEPs5X0DL_JbNhQ2-121" value="FK" style="shape=partialRectangle;html=1;whiteSpace=wrap;connectable=0;fillColor=none;top=0;left=0;bottom=0;right=0;overflow=hidden;pointerEvents=1;strokeColor=inherit;fontSize=16;" parent="qJ_-mEPs5X0DL_JbNhQ2-120" vertex="1">
          <mxGeometry width="91" height="30" as="geometry">
            <mxRectangle width="91" height="30" as="alternateBounds" />
          </mxGeometry>
        </mxCell>
        <mxCell id="qJ_-mEPs5X0DL_JbNhQ2-122" value="DIM_COFFEE_TYPE_ID INT NOT NULL" style="shape=partialRectangle;html=1;whiteSpace=wrap;connectable=0;fillColor=none;top=0;left=0;bottom=0;right=0;align=left;spacingLeft=6;overflow=hidden;strokeColor=inherit;fontSize=16;" parent="qJ_-mEPs5X0DL_JbNhQ2-120" vertex="1">
          <mxGeometry x="91" width="319" height="30" as="geometry">
            <mxRectangle width="319" height="30" as="alternateBounds" />
          </mxGeometry>
        </mxCell>
        <mxCell id="qJ_-mEPs5X0DL_JbNhQ2-49" value="" style="shape=tableRow;horizontal=0;startSize=0;swimlaneHead=0;swimlaneBody=0;top=0;left=0;bottom=0;right=0;collapsible=0;dropTarget=0;fillColor=none;points=[[0,0.5],[1,0.5]];portConstraint=eastwest;strokeColor=inherit;fontSize=16;" parent="qJ_-mEPs5X0DL_JbNhQ2-45" vertex="1">
          <mxGeometry y="90" width="410" height="30" as="geometry" />
        </mxCell>
        <mxCell id="qJ_-mEPs5X0DL_JbNhQ2-50" value="FK" style="shape=partialRectangle;html=1;whiteSpace=wrap;connectable=0;fillColor=none;top=0;left=0;bottom=0;right=0;overflow=hidden;strokeColor=inherit;fontSize=16;" parent="qJ_-mEPs5X0DL_JbNhQ2-49" vertex="1">
          <mxGeometry width="91" height="30" as="geometry">
            <mxRectangle width="91" height="30" as="alternateBounds" />
          </mxGeometry>
        </mxCell>
        <mxCell id="qJ_-mEPs5X0DL_JbNhQ2-51" value="DIM_ROAST_TYPE_ID INT NOT NULL" style="shape=partialRectangle;html=1;whiteSpace=wrap;connectable=0;fillColor=none;top=0;left=0;bottom=0;right=0;align=left;spacingLeft=6;overflow=hidden;strokeColor=inherit;fontSize=16;" parent="qJ_-mEPs5X0DL_JbNhQ2-49" vertex="1">
          <mxGeometry x="91" width="319" height="30" as="geometry">
            <mxRectangle width="319" height="30" as="alternateBounds" />
          </mxGeometry>
        </mxCell>
        <mxCell id="qJ_-mEPs5X0DL_JbNhQ2-123" value="DIM_ORDER" style="shape=table;startSize=30;container=1;collapsible=0;childLayout=tableLayout;fixedRows=1;rowLines=0;fontStyle=0;strokeColor=default;fontSize=16;" parent="1" vertex="1">
          <mxGeometry x="1210" y="576" width="340" height="90" as="geometry" />
        </mxCell>
        <mxCell id="qJ_-mEPs5X0DL_JbNhQ2-124" value="" style="shape=tableRow;horizontal=0;startSize=0;swimlaneHead=0;swimlaneBody=0;top=0;left=0;bottom=0;right=0;collapsible=0;dropTarget=0;fillColor=none;points=[[0,0.5],[1,0.5]];portConstraint=eastwest;strokeColor=inherit;fontSize=16;" parent="qJ_-mEPs5X0DL_JbNhQ2-123" vertex="1">
          <mxGeometry y="30" width="340" height="30" as="geometry" />
        </mxCell>
        <mxCell id="qJ_-mEPs5X0DL_JbNhQ2-125" value="PK" style="shape=partialRectangle;html=1;whiteSpace=wrap;connectable=0;fillColor=none;top=0;left=0;bottom=0;right=0;overflow=hidden;pointerEvents=1;strokeColor=inherit;fontSize=16;" parent="qJ_-mEPs5X0DL_JbNhQ2-124" vertex="1">
          <mxGeometry width="75" height="30" as="geometry">
            <mxRectangle width="75" height="30" as="alternateBounds" />
          </mxGeometry>
        </mxCell>
        <mxCell id="qJ_-mEPs5X0DL_JbNhQ2-126" value="DIM_ORDER_ID INT NOT NULL" style="shape=partialRectangle;html=1;whiteSpace=wrap;connectable=0;fillColor=none;top=0;left=0;bottom=0;right=0;align=left;spacingLeft=6;overflow=hidden;strokeColor=inherit;fontSize=16;" parent="qJ_-mEPs5X0DL_JbNhQ2-124" vertex="1">
          <mxGeometry x="75" width="265" height="30" as="geometry">
            <mxRectangle width="265" height="30" as="alternateBounds" />
          </mxGeometry>
        </mxCell>
        <mxCell id="qJ_-mEPs5X0DL_JbNhQ2-139" value="" style="shape=tableRow;horizontal=0;startSize=0;swimlaneHead=0;swimlaneBody=0;top=0;left=0;bottom=0;right=0;collapsible=0;dropTarget=0;fillColor=none;points=[[0,0.5],[1,0.5]];portConstraint=eastwest;strokeColor=inherit;fontSize=16;" parent="qJ_-mEPs5X0DL_JbNhQ2-123" vertex="1">
          <mxGeometry y="60" width="340" height="30" as="geometry" />
        </mxCell>
        <mxCell id="qJ_-mEPs5X0DL_JbNhQ2-140" value="FK" style="shape=partialRectangle;html=1;whiteSpace=wrap;connectable=0;fillColor=none;top=0;left=0;bottom=0;right=0;overflow=hidden;strokeColor=inherit;fontSize=16;" parent="qJ_-mEPs5X0DL_JbNhQ2-139" vertex="1">
          <mxGeometry width="75" height="30" as="geometry">
            <mxRectangle width="75" height="30" as="alternateBounds" />
          </mxGeometry>
        </mxCell>
        <mxCell id="qJ_-mEPs5X0DL_JbNhQ2-141" value="DIM_DATE_ID INT NOT NULL" style="shape=partialRectangle;html=1;whiteSpace=wrap;connectable=0;fillColor=none;top=0;left=0;bottom=0;right=0;align=left;spacingLeft=6;overflow=hidden;strokeColor=inherit;fontSize=16;" parent="qJ_-mEPs5X0DL_JbNhQ2-139" vertex="1">
          <mxGeometry x="75" width="265" height="30" as="geometry">
            <mxRectangle width="265" height="30" as="alternateBounds" />
          </mxGeometry>
        </mxCell>
        <mxCell id="qJ_-mEPs5X0DL_JbNhQ2-148" style="edgeStyle=orthogonalEdgeStyle;rounded=0;orthogonalLoop=1;jettySize=auto;html=1;exitX=1;exitY=0.5;exitDx=0;exitDy=0;entryX=0;entryY=0.5;entryDx=0;entryDy=0;startArrow=ERmandOne;startFill=0;endArrow=ERmany;endFill=0;" parent="1" source="qJ_-mEPs5X0DL_JbNhQ2-6" target="qJ_-mEPs5X0DL_JbNhQ2-117" edge="1">
          <mxGeometry relative="1" as="geometry" />
        </mxCell>
        <mxCell id="qJ_-mEPs5X0DL_JbNhQ2-149" style="edgeStyle=orthogonalEdgeStyle;rounded=0;orthogonalLoop=1;jettySize=auto;html=1;exitX=0;exitY=0.5;exitDx=0;exitDy=0;entryX=1;entryY=0.5;entryDx=0;entryDy=0;startArrow=ERmandOne;startFill=0;endArrow=ERmany;endFill=0;" parent="1" source="qJ_-mEPs5X0DL_JbNhQ2-46" target="qJ_-mEPs5X0DL_JbNhQ2-29" edge="1">
          <mxGeometry relative="1" as="geometry" />
        </mxCell>
        <mxCell id="qJ_-mEPs5X0DL_JbNhQ2-150" style="edgeStyle=orthogonalEdgeStyle;rounded=0;orthogonalLoop=1;jettySize=auto;html=1;exitX=0;exitY=0.5;exitDx=0;exitDy=0;entryX=1;entryY=0.5;entryDx=0;entryDy=0;startArrow=ERmandOne;startFill=0;endArrow=ERmany;endFill=0;" parent="1" source="qJ_-mEPs5X0DL_JbNhQ2-124" target="qJ_-mEPs5X0DL_JbNhQ2-113" edge="1">
          <mxGeometry relative="1" as="geometry" />
        </mxCell>
        <mxCell id="qJ_-mEPs5X0DL_JbNhQ2-151" style="edgeStyle=orthogonalEdgeStyle;rounded=0;orthogonalLoop=1;jettySize=auto;html=1;exitX=0;exitY=0.5;exitDx=0;exitDy=0;entryX=1;entryY=0.5;entryDx=0;entryDy=0;startArrow=ERmandOne;startFill=0;endArrow=ERmany;endFill=0;" parent="1" source="qJ_-mEPs5X0DL_JbNhQ2-16" target="qJ_-mEPs5X0DL_JbNhQ2-139" edge="1">
          <mxGeometry relative="1" as="geometry" />
        </mxCell>
        <mxCell id="qJ_-mEPs5X0DL_JbNhQ2-152" value="DIM_COFFEE_TYPE" style="shape=table;startSize=30;container=1;collapsible=0;childLayout=tableLayout;fixedRows=1;rowLines=0;fontStyle=0;strokeColor=default;fontSize=16;" parent="1" vertex="1">
          <mxGeometry x="1640" y="700" width="410" height="90" as="geometry" />
        </mxCell>
        <mxCell id="qJ_-mEPs5X0DL_JbNhQ2-153" value="" style="shape=tableRow;horizontal=0;startSize=0;swimlaneHead=0;swimlaneBody=0;top=0;left=0;bottom=0;right=0;collapsible=0;dropTarget=0;fillColor=none;points=[[0,0.5],[1,0.5]];portConstraint=eastwest;strokeColor=inherit;fontSize=16;" parent="qJ_-mEPs5X0DL_JbNhQ2-152" vertex="1">
          <mxGeometry y="30" width="410" height="30" as="geometry" />
        </mxCell>
        <mxCell id="qJ_-mEPs5X0DL_JbNhQ2-154" value="PK" style="shape=partialRectangle;html=1;whiteSpace=wrap;connectable=0;fillColor=none;top=0;left=0;bottom=0;right=0;overflow=hidden;pointerEvents=1;strokeColor=inherit;fontSize=16;" parent="qJ_-mEPs5X0DL_JbNhQ2-153" vertex="1">
          <mxGeometry width="91" height="30" as="geometry">
            <mxRectangle width="91" height="30" as="alternateBounds" />
          </mxGeometry>
        </mxCell>
        <mxCell id="qJ_-mEPs5X0DL_JbNhQ2-155" value="DIM_COFFEE_TYPE_ID INT NOT NULL" style="shape=partialRectangle;html=1;whiteSpace=wrap;connectable=0;fillColor=none;top=0;left=0;bottom=0;right=0;align=left;spacingLeft=6;overflow=hidden;strokeColor=inherit;fontSize=16;" parent="qJ_-mEPs5X0DL_JbNhQ2-153" vertex="1">
          <mxGeometry x="91" width="319" height="30" as="geometry">
            <mxRectangle width="319" height="30" as="alternateBounds" />
          </mxGeometry>
        </mxCell>
        <mxCell id="qJ_-mEPs5X0DL_JbNhQ2-156" value="" style="shape=tableRow;horizontal=0;startSize=0;swimlaneHead=0;swimlaneBody=0;top=0;left=0;bottom=0;right=0;collapsible=0;dropTarget=0;fillColor=none;points=[[0,0.5],[1,0.5]];portConstraint=eastwest;strokeColor=inherit;fontSize=16;" parent="qJ_-mEPs5X0DL_JbNhQ2-152" vertex="1">
          <mxGeometry y="60" width="410" height="30" as="geometry" />
        </mxCell>
        <mxCell id="qJ_-mEPs5X0DL_JbNhQ2-157" value="UNQ" style="shape=partialRectangle;html=1;whiteSpace=wrap;connectable=0;fillColor=none;top=0;left=0;bottom=0;right=0;overflow=hidden;pointerEvents=1;strokeColor=inherit;fontSize=16;" parent="qJ_-mEPs5X0DL_JbNhQ2-156" vertex="1">
          <mxGeometry width="91" height="30" as="geometry">
            <mxRectangle width="91" height="30" as="alternateBounds" />
          </mxGeometry>
        </mxCell>
        <mxCell id="qJ_-mEPs5X0DL_JbNhQ2-158" value="COFFEE_TYPE VARCHAR NOT NULL" style="shape=partialRectangle;html=1;whiteSpace=wrap;connectable=0;fillColor=none;top=0;left=0;bottom=0;right=0;align=left;spacingLeft=6;overflow=hidden;strokeColor=inherit;fontSize=16;" parent="qJ_-mEPs5X0DL_JbNhQ2-156" vertex="1">
          <mxGeometry x="91" width="319" height="30" as="geometry">
            <mxRectangle width="319" height="30" as="alternateBounds" />
          </mxGeometry>
        </mxCell>
        <mxCell id="qJ_-mEPs5X0DL_JbNhQ2-165" value="DIM_COFFEE_TYPE" style="shape=table;startSize=30;container=1;collapsible=0;childLayout=tableLayout;fixedRows=1;rowLines=0;fontStyle=0;strokeColor=default;fontSize=16;" parent="1" vertex="1">
          <mxGeometry x="1640" y="840" width="410" height="90" as="geometry" />
        </mxCell>
        <mxCell id="qJ_-mEPs5X0DL_JbNhQ2-169" value="" style="shape=tableRow;horizontal=0;startSize=0;swimlaneHead=0;swimlaneBody=0;top=0;left=0;bottom=0;right=0;collapsible=0;dropTarget=0;fillColor=none;points=[[0,0.5],[1,0.5]];portConstraint=eastwest;strokeColor=inherit;fontSize=16;" parent="qJ_-mEPs5X0DL_JbNhQ2-165" vertex="1">
          <mxGeometry y="30" width="410" height="30" as="geometry" />
        </mxCell>
        <mxCell id="qJ_-mEPs5X0DL_JbNhQ2-170" value="PK" style="shape=partialRectangle;html=1;whiteSpace=wrap;connectable=0;fillColor=none;top=0;left=0;bottom=0;right=0;overflow=hidden;pointerEvents=1;strokeColor=inherit;fontSize=16;" parent="qJ_-mEPs5X0DL_JbNhQ2-169" vertex="1">
          <mxGeometry width="91" height="30" as="geometry">
            <mxRectangle width="91" height="30" as="alternateBounds" />
          </mxGeometry>
        </mxCell>
        <mxCell id="qJ_-mEPs5X0DL_JbNhQ2-171" value="DIM_ROAST_TYPE_ID INT NOT NULL" style="shape=partialRectangle;html=1;whiteSpace=wrap;connectable=0;fillColor=none;top=0;left=0;bottom=0;right=0;align=left;spacingLeft=6;overflow=hidden;strokeColor=inherit;fontSize=16;" parent="qJ_-mEPs5X0DL_JbNhQ2-169" vertex="1">
          <mxGeometry x="91" width="319" height="30" as="geometry">
            <mxRectangle width="319" height="30" as="alternateBounds" />
          </mxGeometry>
        </mxCell>
        <mxCell id="qJ_-mEPs5X0DL_JbNhQ2-172" value="" style="shape=tableRow;horizontal=0;startSize=0;swimlaneHead=0;swimlaneBody=0;top=0;left=0;bottom=0;right=0;collapsible=0;dropTarget=0;fillColor=none;points=[[0,0.5],[1,0.5]];portConstraint=eastwest;strokeColor=inherit;fontSize=16;" parent="qJ_-mEPs5X0DL_JbNhQ2-165" vertex="1">
          <mxGeometry y="60" width="410" height="30" as="geometry" />
        </mxCell>
        <mxCell id="qJ_-mEPs5X0DL_JbNhQ2-173" value="UNQ" style="shape=partialRectangle;html=1;whiteSpace=wrap;connectable=0;fillColor=none;top=0;left=0;bottom=0;right=0;overflow=hidden;strokeColor=inherit;fontSize=16;" parent="qJ_-mEPs5X0DL_JbNhQ2-172" vertex="1">
          <mxGeometry width="91" height="30" as="geometry">
            <mxRectangle width="91" height="30" as="alternateBounds" />
          </mxGeometry>
        </mxCell>
        <mxCell id="qJ_-mEPs5X0DL_JbNhQ2-174" value="ROAST_TYPE VARCHAR NOT NULL" style="shape=partialRectangle;html=1;whiteSpace=wrap;connectable=0;fillColor=none;top=0;left=0;bottom=0;right=0;align=left;spacingLeft=6;overflow=hidden;strokeColor=inherit;fontSize=16;" parent="qJ_-mEPs5X0DL_JbNhQ2-172" vertex="1">
          <mxGeometry x="91" width="319" height="30" as="geometry">
            <mxRectangle width="319" height="30" as="alternateBounds" />
          </mxGeometry>
        </mxCell>
        <mxCell id="qJ_-mEPs5X0DL_JbNhQ2-178" style="edgeStyle=orthogonalEdgeStyle;rounded=0;orthogonalLoop=1;jettySize=auto;html=1;exitX=1;exitY=0.5;exitDx=0;exitDy=0;entryX=0;entryY=0.5;entryDx=0;entryDy=0;endArrow=ERmandOne;endFill=0;startArrow=ERmany;startFill=0;" parent="1" source="qJ_-mEPs5X0DL_JbNhQ2-49" target="qJ_-mEPs5X0DL_JbNhQ2-169" edge="1">
          <mxGeometry relative="1" as="geometry">
            <Array as="points">
              <mxPoint x="1600" y="855" />
              <mxPoint x="1600" y="885" />
            </Array>
          </mxGeometry>
        </mxCell>
        <mxCell id="qJ_-mEPs5X0DL_JbNhQ2-179" style="edgeStyle=orthogonalEdgeStyle;rounded=0;orthogonalLoop=1;jettySize=auto;html=1;exitX=0;exitY=0.5;exitDx=0;exitDy=0;entryX=1;entryY=0.5;entryDx=0;entryDy=0;startArrow=ERmandOne;startFill=0;endArrow=ERmany;endFill=0;" parent="1" source="qJ_-mEPs5X0DL_JbNhQ2-153" target="qJ_-mEPs5X0DL_JbNhQ2-120" edge="1">
          <mxGeometry relative="1" as="geometry">
            <Array as="points">
              <mxPoint x="1610" y="745" />
              <mxPoint x="1610" y="825" />
            </Array>
          </mxGeometry>
        </mxCell>
        <mxCell id="qJ_-mEPs5X0DL_JbNhQ2-180" value="DIM_CITY" style="shape=table;startSize=30;container=1;collapsible=0;childLayout=tableLayout;fixedRows=1;rowLines=0;fontStyle=0;strokeColor=default;fontSize=16;" parent="1" vertex="1">
          <mxGeometry x="90" y="520" width="400" height="150" as="geometry" />
        </mxCell>
        <mxCell id="qJ_-mEPs5X0DL_JbNhQ2-181" value="" style="shape=tableRow;horizontal=0;startSize=0;swimlaneHead=0;swimlaneBody=0;top=0;left=0;bottom=0;right=0;collapsible=0;dropTarget=0;fillColor=none;points=[[0,0.5],[1,0.5]];portConstraint=eastwest;strokeColor=inherit;fontSize=16;" parent="qJ_-mEPs5X0DL_JbNhQ2-180" vertex="1">
          <mxGeometry y="30" width="400" height="30" as="geometry" />
        </mxCell>
        <mxCell id="qJ_-mEPs5X0DL_JbNhQ2-182" value="PK" style="shape=partialRectangle;html=1;whiteSpace=wrap;connectable=0;fillColor=none;top=0;left=0;bottom=0;right=0;overflow=hidden;pointerEvents=1;strokeColor=inherit;fontSize=16;" parent="qJ_-mEPs5X0DL_JbNhQ2-181" vertex="1">
          <mxGeometry width="89" height="30" as="geometry">
            <mxRectangle width="89" height="30" as="alternateBounds" />
          </mxGeometry>
        </mxCell>
        <mxCell id="qJ_-mEPs5X0DL_JbNhQ2-183" value="DIM_CITY_ID INT NOT NULL" style="shape=partialRectangle;html=1;whiteSpace=wrap;connectable=0;fillColor=none;top=0;left=0;bottom=0;right=0;align=left;spacingLeft=6;overflow=hidden;strokeColor=inherit;fontSize=16;" parent="qJ_-mEPs5X0DL_JbNhQ2-181" vertex="1">
          <mxGeometry x="89" width="311" height="30" as="geometry">
            <mxRectangle width="311" height="30" as="alternateBounds" />
          </mxGeometry>
        </mxCell>
        <mxCell id="qJ_-mEPs5X0DL_JbNhQ2-205" value="" style="shape=tableRow;horizontal=0;startSize=0;swimlaneHead=0;swimlaneBody=0;top=0;left=0;bottom=0;right=0;collapsible=0;dropTarget=0;fillColor=none;points=[[0,0.5],[1,0.5]];portConstraint=eastwest;strokeColor=inherit;fontSize=16;" parent="qJ_-mEPs5X0DL_JbNhQ2-180" vertex="1">
          <mxGeometry y="60" width="400" height="30" as="geometry" />
        </mxCell>
        <mxCell id="qJ_-mEPs5X0DL_JbNhQ2-206" value="FK" style="shape=partialRectangle;html=1;whiteSpace=wrap;connectable=0;fillColor=none;top=0;left=0;bottom=0;right=0;overflow=hidden;strokeColor=inherit;fontSize=16;" parent="qJ_-mEPs5X0DL_JbNhQ2-205" vertex="1">
          <mxGeometry width="89" height="30" as="geometry">
            <mxRectangle width="89" height="30" as="alternateBounds" />
          </mxGeometry>
        </mxCell>
        <mxCell id="qJ_-mEPs5X0DL_JbNhQ2-207" value="DIM_COUNTRY_ID INT NOT NULL" style="shape=partialRectangle;html=1;whiteSpace=wrap;connectable=0;fillColor=none;top=0;left=0;bottom=0;right=0;align=left;spacingLeft=6;overflow=hidden;strokeColor=inherit;fontSize=16;" parent="qJ_-mEPs5X0DL_JbNhQ2-205" vertex="1">
          <mxGeometry x="89" width="311" height="30" as="geometry">
            <mxRectangle width="311" height="30" as="alternateBounds" />
          </mxGeometry>
        </mxCell>
        <mxCell id="qJ_-mEPs5X0DL_JbNhQ2-199" value="" style="shape=tableRow;horizontal=0;startSize=0;swimlaneHead=0;swimlaneBody=0;top=0;left=0;bottom=0;right=0;collapsible=0;dropTarget=0;fillColor=none;points=[[0,0.5],[1,0.5]];portConstraint=eastwest;strokeColor=inherit;fontSize=16;" parent="qJ_-mEPs5X0DL_JbNhQ2-180" vertex="1">
          <mxGeometry y="90" width="400" height="30" as="geometry" />
        </mxCell>
        <mxCell id="qJ_-mEPs5X0DL_JbNhQ2-200" value="" style="shape=partialRectangle;html=1;whiteSpace=wrap;connectable=0;fillColor=none;top=0;left=0;bottom=0;right=0;overflow=hidden;strokeColor=inherit;fontSize=16;" parent="qJ_-mEPs5X0DL_JbNhQ2-199" vertex="1">
          <mxGeometry width="89" height="30" as="geometry">
            <mxRectangle width="89" height="30" as="alternateBounds" />
          </mxGeometry>
        </mxCell>
        <mxCell id="qJ_-mEPs5X0DL_JbNhQ2-201" value="CITY VARCHAR NOT NULL" style="shape=partialRectangle;html=1;whiteSpace=wrap;connectable=0;fillColor=none;top=0;left=0;bottom=0;right=0;align=left;spacingLeft=6;overflow=hidden;strokeColor=inherit;fontSize=16;" parent="qJ_-mEPs5X0DL_JbNhQ2-199" vertex="1">
          <mxGeometry x="89" width="311" height="30" as="geometry">
            <mxRectangle width="311" height="30" as="alternateBounds" />
          </mxGeometry>
        </mxCell>
        <mxCell id="qJ_-mEPs5X0DL_JbNhQ2-202" value="" style="shape=tableRow;horizontal=0;startSize=0;swimlaneHead=0;swimlaneBody=0;top=0;left=0;bottom=0;right=0;collapsible=0;dropTarget=0;fillColor=none;points=[[0,0.5],[1,0.5]];portConstraint=eastwest;strokeColor=inherit;fontSize=16;" parent="qJ_-mEPs5X0DL_JbNhQ2-180" vertex="1">
          <mxGeometry y="120" width="400" height="30" as="geometry" />
        </mxCell>
        <mxCell id="qJ_-mEPs5X0DL_JbNhQ2-203" value="" style="shape=partialRectangle;html=1;whiteSpace=wrap;connectable=0;fillColor=none;top=0;left=0;bottom=0;right=0;overflow=hidden;strokeColor=inherit;fontSize=16;" parent="qJ_-mEPs5X0DL_JbNhQ2-202" vertex="1">
          <mxGeometry width="89" height="30" as="geometry">
            <mxRectangle width="89" height="30" as="alternateBounds" />
          </mxGeometry>
        </mxCell>
        <mxCell id="qJ_-mEPs5X0DL_JbNhQ2-204" value="ZIP_CODE CHAR NOT NULL" style="shape=partialRectangle;html=1;whiteSpace=wrap;connectable=0;fillColor=none;top=0;left=0;bottom=0;right=0;align=left;spacingLeft=6;overflow=hidden;strokeColor=inherit;fontSize=16;" parent="qJ_-mEPs5X0DL_JbNhQ2-202" vertex="1">
          <mxGeometry x="89" width="311" height="30" as="geometry">
            <mxRectangle width="311" height="30" as="alternateBounds" />
          </mxGeometry>
        </mxCell>
        <mxCell id="qJ_-mEPs5X0DL_JbNhQ2-208" value="DIM_COUNTRY" style="shape=table;startSize=30;container=1;collapsible=0;childLayout=tableLayout;fixedRows=1;rowLines=0;fontStyle=0;strokeColor=default;fontSize=16;" parent="1" vertex="1">
          <mxGeometry x="260" y="400" width="400" height="90" as="geometry" />
        </mxCell>
        <mxCell id="qJ_-mEPs5X0DL_JbNhQ2-212" value="" style="shape=tableRow;horizontal=0;startSize=0;swimlaneHead=0;swimlaneBody=0;top=0;left=0;bottom=0;right=0;collapsible=0;dropTarget=0;fillColor=none;points=[[0,0.5],[1,0.5]];portConstraint=eastwest;strokeColor=inherit;fontSize=16;" parent="qJ_-mEPs5X0DL_JbNhQ2-208" vertex="1">
          <mxGeometry y="30" width="400" height="30" as="geometry" />
        </mxCell>
        <mxCell id="qJ_-mEPs5X0DL_JbNhQ2-213" value="PK" style="shape=partialRectangle;html=1;whiteSpace=wrap;connectable=0;fillColor=none;top=0;left=0;bottom=0;right=0;overflow=hidden;strokeColor=inherit;fontSize=16;" parent="qJ_-mEPs5X0DL_JbNhQ2-212" vertex="1">
          <mxGeometry width="89" height="30" as="geometry">
            <mxRectangle width="89" height="30" as="alternateBounds" />
          </mxGeometry>
        </mxCell>
        <mxCell id="qJ_-mEPs5X0DL_JbNhQ2-214" value="DIM_COUNTRY_ID INT NOT NULL" style="shape=partialRectangle;html=1;whiteSpace=wrap;connectable=0;fillColor=none;top=0;left=0;bottom=0;right=0;align=left;spacingLeft=6;overflow=hidden;strokeColor=inherit;fontSize=16;" parent="qJ_-mEPs5X0DL_JbNhQ2-212" vertex="1">
          <mxGeometry x="89" width="311" height="30" as="geometry">
            <mxRectangle width="311" height="30" as="alternateBounds" />
          </mxGeometry>
        </mxCell>
        <mxCell id="qJ_-mEPs5X0DL_JbNhQ2-215" value="" style="shape=tableRow;horizontal=0;startSize=0;swimlaneHead=0;swimlaneBody=0;top=0;left=0;bottom=0;right=0;collapsible=0;dropTarget=0;fillColor=none;points=[[0,0.5],[1,0.5]];portConstraint=eastwest;strokeColor=inherit;fontSize=16;" parent="qJ_-mEPs5X0DL_JbNhQ2-208" vertex="1">
          <mxGeometry y="60" width="400" height="30" as="geometry" />
        </mxCell>
        <mxCell id="qJ_-mEPs5X0DL_JbNhQ2-216" value="UNQ" style="shape=partialRectangle;html=1;whiteSpace=wrap;connectable=0;fillColor=none;top=0;left=0;bottom=0;right=0;overflow=hidden;strokeColor=inherit;fontSize=16;" parent="qJ_-mEPs5X0DL_JbNhQ2-215" vertex="1">
          <mxGeometry width="89" height="30" as="geometry">
            <mxRectangle width="89" height="30" as="alternateBounds" />
          </mxGeometry>
        </mxCell>
        <mxCell id="qJ_-mEPs5X0DL_JbNhQ2-217" value="COUNTRY VARCHAR NOT NULL" style="shape=partialRectangle;html=1;whiteSpace=wrap;connectable=0;fillColor=none;top=0;left=0;bottom=0;right=0;align=left;spacingLeft=6;overflow=hidden;strokeColor=inherit;fontSize=16;" parent="qJ_-mEPs5X0DL_JbNhQ2-215" vertex="1">
          <mxGeometry x="89" width="311" height="30" as="geometry">
            <mxRectangle width="311" height="30" as="alternateBounds" />
          </mxGeometry>
        </mxCell>
        <mxCell id="qJ_-mEPs5X0DL_JbNhQ2-222" style="edgeStyle=orthogonalEdgeStyle;rounded=0;orthogonalLoop=1;jettySize=auto;html=1;exitX=1;exitY=0.5;exitDx=0;exitDy=0;entryX=1;entryY=0.5;entryDx=0;entryDy=0;startArrow=ERmany;startFill=0;endArrow=ERmandOne;endFill=0;" parent="1" source="qJ_-mEPs5X0DL_JbNhQ2-205" target="qJ_-mEPs5X0DL_JbNhQ2-212" edge="1">
          <mxGeometry relative="1" as="geometry">
            <Array as="points">
              <mxPoint x="720" y="595" />
              <mxPoint x="720" y="445" />
            </Array>
          </mxGeometry>
        </mxCell>
        <mxCell id="qJ_-mEPs5X0DL_JbNhQ2-223" style="edgeStyle=orthogonalEdgeStyle;rounded=0;orthogonalLoop=1;jettySize=auto;html=1;exitX=0;exitY=0.5;exitDx=0;exitDy=0;entryX=0;entryY=0.5;entryDx=0;entryDy=0;startArrow=ERmandOne;startFill=0;endArrow=ERmany;endFill=0;" parent="1" source="qJ_-mEPs5X0DL_JbNhQ2-181" target="qJ_-mEPs5X0DL_JbNhQ2-224" edge="1">
          <mxGeometry relative="1" as="geometry" />
        </mxCell>
      </root>
    </mxGraphModel>
  </diagram>
</mxfile>
